<?xml version="1.0" encoding="UTF-8" standalone="no"?><svg xmlns="http://www.w3.org/2000/svg" xmlns:xlink="http://www.w3.org/1999/xlink" clip-rule="evenodd" stroke-miterlimit="10" viewBox="0 0 1024 768"><desc>SVG generated by Keynote</desc><defs></defs><g transform="matrix(1.00, 0.00, -0.00, -1.00, 0.0, 768.0)"><path d="M 0.0 768.0 L 1024.0 768.0 L 1024.0 0.0 L 0.0 0.0 Z M 0.0 768.0 " fill="#FEFFFF"></path><text xml:space="preserve" font-family="Helvetica-Light,Helvetica" font-size="80.0" fill="#000000" transform="matrix(1.00, 0.00, -0.00, -1.00, 386.0, 690.4)">S</text><text xml:space="preserve" font-family="Helvetica-Light,Helvetica" font-size="80.0" fill="#000000" transform="matrix(1.00, 0.00, -0.00, -1.00, 434.9, 690.4)">e</text><text xml:space="preserve" font-family="Helvetica-Light,Helvetica" font-size="80.0" fill="#000000" transform="matrix(1.00, 0.00, -0.00, -1.00, 479.4, 690.4)">a</text><text xml:space="preserve" font-family="Helvetica-Light,Helvetica" font-size="80.0" fill="#000000" transform="matrix(1.00, 0.00, -0.00, -1.00, 523.8, 690.4)">r</text><text xml:space="preserve" font-family="Helvetica-Light,Helvetica" font-size="80.0" fill="#000000" transform="matrix(1.00, 0.00, -0.00, -1.00, 549.0, 690.4)">c</text><text xml:space="preserve" font-family="Helvetica-Light,Helvetica" font-size="80.0" fill="#000000" transform="matrix(1.00, 0.00, -0.00, -1.00, 593.5, 690.4)">h</text><image xlink:href="296F886C4E766F547A90AC1A10B854FE.png" width="840.00" height="378.00" transform="matrix(1.00, 0.00, -0.00, -1.00, -611.0, 781.7)" opacity="0.70"></image><image xlink:href="E66897590AF2D70930E3AEE38E229744.png" width="1326.00" height="560.00" transform="matrix(0.60, 0.00, -0.00, -0.60, -591.0, 771.7)"></image><image xlink:href="4BF00926A4572148A84C9623D867F1ED.png" width="360.00" height="520.00" transform="matrix(1.00, 0.00, -0.00, -1.00, 660.0, 554.5)" opacity="0.70"></image><image xlink:href="299C8B9E31D56DF8CB51533F26C5068F.jpeg" width="320.00" height="480.00" transform="matrix(1.00, 0.00, -0.00, -1.00, 680.0, 544.5)"></image><image xlink:href="C8EE55D4D00D745FCE0B64E678A9AB91.png" width="540.00" height="277.00" transform="matrix(1.00, 0.00, -0.00, -1.00, 9.0, 611.5)" opacity="0.70"></image><image xlink:href="648B5FFADCE2492185B667BE647CFCFE.jpeg" width="668.00" height="316.00" transform="matrix(0.75, 0.00, -0.00, -0.75, 29.0, 601.5)"></image><image xlink:href="F533E2409ADF05CB30175DA750E4D535.png" width="592.00" height="367.00" transform="matrix(1.00, 0.00, -0.00, -1.00, 170.0, 423.0)" opacity="0.70"></image><image xlink:href="1306C40F718EB7117C2C1B550AA9CF95.jpeg" width="770.00" height="456.00" transform="matrix(0.72, 0.00, -0.00, -0.72, 190.0, 413.0)"></image></g></svg>