<?xml version="1.0" encoding="UTF-8" standalone="no"?><svg xmlns="http://www.w3.org/2000/svg" xmlns:xlink="http://www.w3.org/1999/xlink" clip-rule="evenodd" stroke-miterlimit="10" viewBox="0 0 1024 768"><desc>SVG generated by Keynote</desc><defs></defs><g transform="matrix(1.00, 0.00, -0.00, -1.00, 0.0, 768.0)"><path d="M 0.0 768.0 L 1024.0 768.0 L 1024.0 0.0 L 0.0 0.0 Z M 0.0 768.0 " fill="#FEFFFF"></path><text xml:space="preserve" font-family="Helvetica-Light,Helvetica" font-size="68.8" fill="#000000" transform="matrix(1.00, 0.00, -0.00, -1.00, 79.4, 66.8)">P</text><text xml:space="preserve" font-family="Helvetica-Light,Helvetica" font-size="68.8" fill="#000000" transform="matrix(1.00, 0.00, -0.00, -1.00, 121.4, 66.8)">l</text><text xml:space="preserve" font-family="Helvetica-Light,Helvetica" font-size="68.8" fill="#000000" transform="matrix(1.00, 0.00, -0.00, -1.00, 136.7, 66.8)">o</text><text xml:space="preserve" font-family="Helvetica-Light,Helvetica" font-size="68.8" fill="#000000" transform="matrix(1.00, 0.00, -0.00, -1.00, 174.9, 66.8)">n</text><text xml:space="preserve" font-family="Helvetica-Light,Helvetica" font-size="68.8" fill="#000000" transform="matrix(1.00, 0.00, -0.00, -1.00, 213.2, 66.8)">e</text><text xml:space="preserve" font-family="Helvetica-Light,Helvetica" font-size="68.8" fill="#000000" transform="matrix(1.00, 0.00, -0.00, -1.00, 251.4, 66.8)">F</text><text xml:space="preserve" font-family="Helvetica-Light,Helvetica" font-size="68.8" fill="#000000" transform="matrix(1.00, 0.00, -0.00, -1.00, 289.7, 66.8)">o</text><text xml:space="preserve" font-family="Helvetica-Light,Helvetica" font-size="68.8" fill="#000000" transform="matrix(1.00, 0.00, -0.00, -1.00, 327.9, 66.8)">r</text><text xml:space="preserve" font-family="Helvetica-Light,Helvetica" font-size="68.8" fill="#000000" transform="matrix(1.00, 0.00, -0.00, -1.00, 352.1, 66.8)">m</text><text xml:space="preserve" font-family="Helvetica-Light,Helvetica" font-size="68.8" fill="#000000" transform="matrix(1.00, 0.00, -0.00, -1.00, 409.4, 66.8)">G</text><text xml:space="preserve" font-family="Helvetica-Light,Helvetica" font-size="68.8" fill="#000000" transform="matrix(1.00, 0.00, -0.00, -1.00, 462.9, 66.8)">e</text><text xml:space="preserve" font-family="Helvetica-Light,Helvetica" font-size="68.8" fill="#000000" transform="matrix(1.00, 0.00, -0.00, -1.00, 501.2, 66.8)">n</text><text xml:space="preserve" font-family="Helvetica-Light,Helvetica" font-size="68.8" fill="#000000" transform="matrix(1.00, 0.00, -0.00, -1.00, 539.4, 66.8)"> </text><text xml:space="preserve" font-family="Helvetica-Light,Helvetica" font-size="68.8" fill="#000000" transform="matrix(1.00, 0.00, -0.00, -1.00, 558.5, 66.8)">o</text><text xml:space="preserve" font-family="Helvetica-Light,Helvetica" font-size="68.8" fill="#000000" transform="matrix(1.00, 0.00, -0.00, -1.00, 596.8, 66.8)">r</text><text xml:space="preserve" font-family="Helvetica-Light,Helvetica" font-size="68.8" fill="#000000" transform="matrix(1.00, 0.00, -0.00, -1.00, 619.7, 66.8)"> </text><text xml:space="preserve" font-family="Helvetica-Light,Helvetica" font-size="68.8" fill="#000000" transform="matrix(1.00, 0.00, -0.00, -1.00, 638.8, 66.8)">D</text><text xml:space="preserve" font-family="Helvetica-Light,Helvetica" font-size="68.8" fill="#000000" transform="matrix(1.00, 0.00, -0.00, -1.00, 688.5, 66.8)">e</text><text xml:space="preserve" font-family="Helvetica-Light,Helvetica" font-size="68.8" fill="#000000" transform="matrix(1.00, 0.00, -0.00, -1.00, 726.8, 66.8)">x</text><text xml:space="preserve" font-family="Helvetica-Light,Helvetica" font-size="68.8" fill="#000000" transform="matrix(1.00, 0.00, -0.00, -1.00, 761.2, 66.8)">t</text><text xml:space="preserve" font-family="Helvetica-Light,Helvetica" font-size="68.8" fill="#000000" transform="matrix(1.00, 0.00, -0.00, -1.00, 780.3, 66.8)">e</text><text xml:space="preserve" font-family="Helvetica-Light,Helvetica" font-size="68.8" fill="#000000" transform="matrix(1.00, 0.00, -0.00, -1.00, 818.5, 66.8)">r</text><text xml:space="preserve" font-family="Helvetica-Light,Helvetica" font-size="68.8" fill="#000000" transform="matrix(1.00, 0.00, -0.00, -1.00, 841.4, 66.8)">i</text><text xml:space="preserve" font-family="Helvetica-Light,Helvetica" font-size="68.8" fill="#000000" transform="matrix(1.00, 0.00, -0.00, -1.00, 856.7, 66.8)">t</text><text xml:space="preserve" font-family="Helvetica-Light,Helvetica" font-size="68.8" fill="#000000" transform="matrix(1.00, 0.00, -0.00, -1.00, 875.8, 66.8)">y</text><text xml:space="preserve" font-family="Helvetica-Light,Helvetica" font-size="68.8" fill="#000000" transform="matrix(1.00, 0.00, -0.00, -1.00, 910.2, 66.8)">?</text><image xlink:href="12A14D4CD581357F4BFFEFF272DB99D3.jpeg" width="1083.00" height="800.00" transform="matrix(0.73, 0.00, -0.00, -0.73, 117.0, 768.0)"></image></g></svg>