<?xml version="1.0" encoding="UTF-8" standalone="no"?><svg xmlns="http://www.w3.org/2000/svg" xmlns:xlink="http://www.w3.org/1999/xlink" clip-rule="evenodd" stroke-miterlimit="10" viewBox="0 0 1024 768"><desc>SVG generated by Keynote</desc><defs></defs><g transform="matrix(1.00, 0.00, -0.00, -1.00, 0.0, 768.0)"><path d="M 0.0 768.0 L 1024.0 768.0 L 1024.0 0.0 L 0.0 0.0 Z M 0.0 768.0 " fill="#FEFFFF"></path><image xlink:href="6673F0465EE173FD28E80E5F3E888DC9.png" width="1064.00" height="453.00" transform="matrix(1.00, 0.00, -0.00, -1.00, -20.0, 759.6)" opacity="0.70"></image><image xlink:href="AD897718FBD6B79F65D95EC02166E955.png" width="1417.00" height="572.00" transform="matrix(0.72, 0.00, -0.00, -0.72, 0.0, 749.6)"></image><image xlink:href="FC90CDBA0825F876DDF76E4DAA4B78B7.png" width="415.00" height="276.00" transform="matrix(1.00, 0.00, -0.00, -1.00, 15.5, 297.3)" opacity="0.70"></image><image xlink:href="FF5C85EC8892F2C024C77814474647EC.png" width="375.00" height="236.00" transform="matrix(1.00, 0.00, -0.00, -1.00, 35.5, 287.3)"></image><image xlink:href="5BCCC9CAEA29928114645533E8B11594.png" width="284.00" height="363.00" transform="matrix(1.00, 0.00, -0.00, -1.00, 513.3, 324.6)" opacity="0.70"></image><image xlink:href="028241E75908038FF7615408CC033F72.png" width="285.00" height="377.00" transform="matrix(0.86, 0.00, -0.00, -0.86, 533.3, 314.6)"></image></g></svg>