<?xml version="1.0" encoding="UTF-8" standalone="no"?><svg xmlns="http://www.w3.org/2000/svg" xmlns:xlink="http://www.w3.org/1999/xlink" clip-rule="evenodd" stroke-miterlimit="10" viewBox="0 0 1024 768"><desc>SVG generated by Keynote</desc><defs></defs><g transform="matrix(1.00, 0.00, -0.00, -1.00, 0.0, 768.0)"><path d="M 0.0 768.0 L 1024.0 768.0 L 1024.0 0.0 L 0.0 0.0 Z M 0.0 768.0 " fill="#FEFFFF"></path><image xlink:href="../../9409D439-7BA2-464F-AB39-138AF91455A1/assets/77527607201FFE53CBE32E5E1D395714.png" width="785.00" height="726.00" transform="matrix(1.00, 0.00, -0.00, -1.00, 251.2, 400.5)" opacity="0.70"></image><image xlink:href="../../9409D439-7BA2-464F-AB39-138AF91455A1/assets/F7243D22D736348FD7C8060E21503EDE.jpeg" width="1652.00" height="1522.00" transform="matrix(0.45, 0.00, -0.00, -0.45, 271.2, 390.5)"></image><text xml:space="preserve" font-family="Helvetica-Light,Helvetica" font-size="54.4" fill="#000000" transform="matrix(1.00, 0.00, -0.00, -1.00, 80.7, 675.5)">I</text><text xml:space="preserve" font-family="Helvetica-Light,Helvetica" font-size="54.4" fill="#000000" transform="matrix(1.00, 0.00, -0.00, -1.00, 95.8, 675.5)">n</text><text xml:space="preserve" font-family="Helvetica-Light,Helvetica" font-size="54.4" fill="#000000" transform="matrix(1.00, 0.00, -0.00, -1.00, 126.0, 675.5)">s</text><text xml:space="preserve" font-family="Helvetica-Light,Helvetica" font-size="54.4" fill="#000000" transform="matrix(1.00, 0.00, -0.00, -1.00, 153.2, 675.5)">t</text><text xml:space="preserve" font-family="Helvetica-Light,Helvetica" font-size="54.4" fill="#000000" transform="matrix(1.00, 0.00, -0.00, -1.00, 168.4, 675.5)">i</text><text xml:space="preserve" font-family="Helvetica-Light,Helvetica" font-size="54.4" fill="#000000" transform="matrix(1.00, 0.00, -0.00, -1.00, 180.4, 675.5)">t</text><text xml:space="preserve" font-family="Helvetica-Light,Helvetica" font-size="54.4" fill="#000000" transform="matrix(1.00, 0.00, -0.00, -1.00, 195.6, 675.5)">u</text><text xml:space="preserve" font-family="Helvetica-Light,Helvetica" font-size="54.4" fill="#000000" transform="matrix(1.00, 0.00, -0.00, -1.00, 225.8, 675.5)">t</text><text xml:space="preserve" font-family="Helvetica-Light,Helvetica" font-size="54.4" fill="#000000" transform="matrix(1.00, 0.00, -0.00, -1.00, 240.9, 675.5)">i</text><text xml:space="preserve" font-family="Helvetica-Light,Helvetica" font-size="54.4" fill="#000000" transform="matrix(1.00, 0.00, -0.00, -1.00, 253.0, 675.5)">o</text><text xml:space="preserve" font-family="Helvetica-Light,Helvetica" font-size="54.4" fill="#000000" transform="matrix(1.00, 0.00, -0.00, -1.00, 283.2, 675.5)">n</text><text xml:space="preserve" font-family="Helvetica-Light,Helvetica" font-size="54.4" fill="#000000" transform="matrix(1.00, 0.00, -0.00, -1.00, 313.5, 675.5)">a</text><text xml:space="preserve" font-family="Helvetica-Light,Helvetica" font-size="54.4" fill="#000000" transform="matrix(1.00, 0.00, -0.00, -1.00, 343.7, 675.5)">l</text><text xml:space="preserve" font-family="Helvetica-Light,Helvetica" font-size="54.4" fill="#000000" transform="matrix(1.00, 0.00, -0.00, -1.00, 355.8, 675.5)"> </text><text xml:space="preserve" font-family="Helvetica-Light,Helvetica" font-size="54.4" fill="#000000" transform="matrix(1.00, 0.00, -0.00, -1.00, 370.9, 675.5)">R</text><text xml:space="preserve" font-family="Helvetica-Light,Helvetica" font-size="54.4" fill="#000000" transform="matrix(1.00, 0.00, -0.00, -1.00, 407.2, 675.5)">e</text><text xml:space="preserve" font-family="Helvetica-Light,Helvetica" font-size="54.4" fill="#000000" transform="matrix(1.00, 0.00, -0.00, -1.00, 437.5, 675.5)">v</text><text xml:space="preserve" font-family="Helvetica-Light,Helvetica" font-size="54.4" fill="#000000" transform="matrix(1.00, 0.00, -0.00, -1.00, 464.7, 675.5)">i</text><text xml:space="preserve" font-family="Helvetica-Light,Helvetica" font-size="54.4" fill="#000000" transform="matrix(1.00, 0.00, -0.00, -1.00, 476.7, 675.5)">e</text><text xml:space="preserve" font-family="Helvetica-Light,Helvetica" font-size="54.4" fill="#000000" transform="matrix(1.00, 0.00, -0.00, -1.00, 507.0, 675.5)">w</text><text xml:space="preserve" font-family="Helvetica-Light,Helvetica" font-size="54.4" fill="#000000" transform="matrix(1.00, 0.00, -0.00, -1.00, 546.3, 675.5)"> </text><text xml:space="preserve" font-family="Helvetica-Light,Helvetica" font-size="54.4" fill="#000000" transform="matrix(1.00, 0.00, -0.00, -1.00, 561.4, 675.5)">B</text><text xml:space="preserve" font-family="Helvetica-Light,Helvetica" font-size="54.4" fill="#000000" transform="matrix(1.00, 0.00, -0.00, -1.00, 597.7, 675.5)">o</text><text xml:space="preserve" font-family="Helvetica-Light,Helvetica" font-size="54.4" fill="#000000" transform="matrix(1.00, 0.00, -0.00, -1.00, 627.9, 675.5)">a</text><text xml:space="preserve" font-family="Helvetica-Light,Helvetica" font-size="54.4" fill="#000000" transform="matrix(1.00, 0.00, -0.00, -1.00, 658.2, 675.5)">r</text><text xml:space="preserve" font-family="Helvetica-Light,Helvetica" font-size="54.4" fill="#000000" transform="matrix(1.00, 0.00, -0.00, -1.00, 675.3, 675.5)">d</text><text xml:space="preserve" font-family="Helvetica-Light,Helvetica" font-size="54.4" fill="#000000" transform="matrix(1.00, 0.00, -0.00, -1.00, 708.5, 675.5)"> </text><text xml:space="preserve" font-family="Helvetica-Light,Helvetica" font-size="54.4" fill="#000000" transform="matrix(1.00, 0.00, -0.00, -1.00, 723.7, 675.5)">A</text><text xml:space="preserve" font-family="Helvetica-Light,Helvetica" font-size="54.4" fill="#000000" transform="matrix(1.00, 0.00, -0.00, -1.00, 760.0, 675.5)">p</text><text xml:space="preserve" font-family="Helvetica-Light,Helvetica" font-size="54.4" fill="#000000" transform="matrix(1.00, 0.00, -0.00, -1.00, 793.2, 675.5)">p</text><text xml:space="preserve" font-family="Helvetica-Light,Helvetica" font-size="54.4" fill="#000000" transform="matrix(1.00, 0.00, -0.00, -1.00, 826.4, 675.5)">r</text><text xml:space="preserve" font-family="Helvetica-Light,Helvetica" font-size="54.4" fill="#000000" transform="matrix(1.00, 0.00, -0.00, -1.00, 843.6, 675.5)">o</text><text xml:space="preserve" font-family="Helvetica-Light,Helvetica" font-size="54.4" fill="#000000" transform="matrix(1.00, 0.00, -0.00, -1.00, 873.8, 675.5)">v</text><text xml:space="preserve" font-family="Helvetica-Light,Helvetica" font-size="54.4" fill="#000000" transform="matrix(1.00, 0.00, -0.00, -1.00, 901.0, 675.5)">a</text><text xml:space="preserve" font-family="Helvetica-Light,Helvetica" font-size="54.4" fill="#000000" transform="matrix(1.00, 0.00, -0.00, -1.00, 931.3, 675.5)">l</text><image xlink:href="../../9409D439-7BA2-464F-AB39-138AF91455A1/assets/48F03CB1F3C4C6D17EE65CD8182C2D4B.png" width="224.00" height="178.00" transform="matrix(1.00, 0.00, -0.00, -1.00, 28.1, 261.0)" opacity="0.50"></image><g><clipPath id="clip0x618000ea9ae0"><path d="M 31.0 257.0 L 248.0 257.0 L 248.0 87.0 L 31.0 87.0 Z M 31.1 257.0 "></path></clipPath><g clip-path="url(#clip0x618000ea9ae0)"><image xlink:href="../../21B7AB27-8AE9-406B-BF3F-4A7DE6BABF22/assets/54AAA609FA4289ED6813ACB24DD77507.png" width="600.00" height="600.00" transform="matrix(0.50, 0.00, -0.00, -0.50, 31.0, 257.0)"></image></g></g><g><clipPath id="clip0x6080014ba940"><path d="M 29.1 87.0 L 249.5 87.0 L 249.5 257.0 L 29.1 257.0 Z M 29.1 87.0 "></path></clipPath><g clip-path="url(#clip0x6080014ba940)"><text xml:space="preserve" font-family="Helvetica-Light,Helvetica" font-size="24.0" fill="#FEFFFE" transform="matrix(1.00, 0.00, -0.00, -1.00, 87.3, 220.5)">1</text><text xml:space="preserve" font-family="Helvetica-Light,Helvetica" font-size="24.0" fill="#FEFFFE" transform="matrix(1.00, 0.00, -0.00, -1.00, 100.7, 220.5)">8</text><text xml:space="preserve" font-family="Helvetica-Light,Helvetica" font-size="24.0" fill="#FEFFFE" transform="matrix(1.00, 0.00, -0.00, -1.00, 114.0, 220.5)">0</text><text xml:space="preserve" font-family="Helvetica-Light,Helvetica" font-size="24.0" fill="#FEFFFE" transform="matrix(1.00, 0.00, -0.00, -1.00, 127.3, 220.5)"> </text><text xml:space="preserve" font-family="Helvetica-Light,Helvetica" font-size="24.0" fill="#FEFFFE" transform="matrix(1.00, 0.00, -0.00, -1.00, 134.0, 220.5)">ï¬</text><text xml:space="preserve" font-family="Helvetica-Light,Helvetica" font-size="24.0" fill="#FEFFFE" transform="matrix(1.00, 0.00, -0.00, -1.00, 146.0, 220.5)">e</text><text xml:space="preserve" font-family="Helvetica-Light,Helvetica" font-size="24.0" fill="#FEFFFE" transform="matrix(1.00, 0.00, -0.00, -1.00, 159.4, 220.5)">l</text><text xml:space="preserve" font-family="Helvetica-Light,Helvetica" font-size="24.0" fill="#FEFFFE" transform="matrix(1.00, 0.00, -0.00, -1.00, 164.7, 220.5)">d</text><text xml:space="preserve" font-family="Helvetica-Light,Helvetica" font-size="24.0" fill="#FEFFFE" transform="matrix(1.00, 0.00, -0.00, -1.00, 179.3, 220.5)">s</text><text xml:space="preserve" font-family="Helvetica-Light,Helvetica" font-size="24.0" fill="#FEFFFE" transform="matrix(1.00, 0.00, -0.00, -1.00, 191.3, 220.5)"> </text><text xml:space="preserve" font-family="Helvetica-Light,Helvetica" font-size="24.0" fill="#FEFFFE" transform="matrix(1.00, 0.00, -0.00, -1.00, 90.6, 162.5)">6</text><text xml:space="preserve" font-family="Helvetica-Light,Helvetica" font-size="24.0" fill="#FEFFFE" transform="matrix(1.00, 0.00, -0.00, -1.00, 104.0, 162.5)">0</text><text xml:space="preserve" font-family="Helvetica-Light,Helvetica" font-size="24.0" fill="#FEFFFE" transform="matrix(1.00, 0.00, -0.00, -1.00, 117.3, 162.5)"> </text><text xml:space="preserve" font-family="Helvetica-Light,Helvetica" font-size="24.0" fill="#FEFFFE" transform="matrix(1.00, 0.00, -0.00, -1.00, 124.0, 162.5)">s</text><text xml:space="preserve" font-family="Helvetica-Light,Helvetica" font-size="24.0" fill="#FEFFFE" transform="matrix(1.00, 0.00, -0.00, -1.00, 136.0, 162.5)">t</text><text xml:space="preserve" font-family="Helvetica-Light,Helvetica" font-size="24.0" fill="#FEFFFE" transform="matrix(1.00, 0.00, -0.00, -1.00, 142.7, 162.5)">a</text><text xml:space="preserve" font-family="Helvetica-Light,Helvetica" font-size="24.0" fill="#FEFFFE" transform="matrix(1.00, 0.00, -0.00, -1.00, 156.0, 162.5)">t</text><text xml:space="preserve" font-family="Helvetica-Light,Helvetica" font-size="24.0" fill="#FEFFFE" transform="matrix(1.00, 0.00, -0.00, -1.00, 162.7, 162.5)">e</text><text xml:space="preserve" font-family="Helvetica-Light,Helvetica" font-size="24.0" fill="#FEFFFE" transform="matrix(1.00, 0.00, -0.00, -1.00, 176.0, 162.5)">s</text><text xml:space="preserve" font-family="Helvetica-Light,Helvetica" font-size="24.0" fill="#FEFFFE" transform="matrix(1.00, 0.00, -0.00, -1.00, 188.0, 162.5)"> </text><text xml:space="preserve" font-family="Helvetica-Light,Helvetica" font-size="24.0" fill="#FEFFFE" transform="matrix(1.00, 0.00, -0.00, -1.00, 61.3, 104.5)">1</text><text xml:space="preserve" font-family="Helvetica-Light,Helvetica" font-size="24.0" fill="#FEFFFE" transform="matrix(1.00, 0.00, -0.00, -1.00, 74.6, 104.5)">1</text><text xml:space="preserve" font-family="Helvetica-Light,Helvetica" font-size="24.0" fill="#FEFFFE" transform="matrix(1.00, 0.00, -0.00, -1.00, 88.0, 104.5)">4</text><text xml:space="preserve" font-family="Helvetica-Light,Helvetica" font-size="24.0" fill="#FEFFFE" transform="matrix(1.00, 0.00, -0.00, -1.00, 101.3, 104.5)"> </text><text xml:space="preserve" font-family="Helvetica-Light,Helvetica" font-size="24.0" fill="#FEFFFE" transform="matrix(1.00, 0.00, -0.00, -1.00, 108.0, 104.5)">t</text><text xml:space="preserve" font-family="Helvetica-Light,Helvetica" font-size="24.0" fill="#FEFFFE" transform="matrix(1.00, 0.00, -0.00, -1.00, 114.7, 104.5)">r</text><text xml:space="preserve" font-family="Helvetica-Light,Helvetica" font-size="24.0" fill="#FEFFFE" transform="matrix(1.00, 0.00, -0.00, -1.00, 122.7, 104.5)">a</text><text xml:space="preserve" font-family="Helvetica-Light,Helvetica" font-size="24.0" fill="#FEFFFE" transform="matrix(1.00, 0.00, -0.00, -1.00, 136.0, 104.5)">n</text><text xml:space="preserve" font-family="Helvetica-Light,Helvetica" font-size="24.0" fill="#FEFFFE" transform="matrix(1.00, 0.00, -0.00, -1.00, 149.3, 104.5)">s</text><text xml:space="preserve" font-family="Helvetica-Light,Helvetica" font-size="24.0" fill="#FEFFFE" transform="matrix(1.00, 0.00, -0.00, -1.00, 161.3, 104.5)">i</text><text xml:space="preserve" font-family="Helvetica-Light,Helvetica" font-size="24.0" fill="#FEFFFE" transform="matrix(1.00, 0.00, -0.00, -1.00, 166.7, 104.5)">t</text><text xml:space="preserve" font-family="Helvetica-Light,Helvetica" font-size="24.0" fill="#FEFFFE" transform="matrix(1.00, 0.00, -0.00, -1.00, 173.3, 104.5)">i</text><text xml:space="preserve" font-family="Helvetica-Light,Helvetica" font-size="24.0" fill="#FEFFFE" transform="matrix(1.00, 0.00, -0.00, -1.00, 178.7, 104.5)">o</text><text xml:space="preserve" font-family="Helvetica-Light,Helvetica" font-size="24.0" fill="#FEFFFE" transform="matrix(1.00, 0.00, -0.00, -1.00, 192.0, 104.5)">n</text><text xml:space="preserve" font-family="Helvetica-Light,Helvetica" font-size="24.0" fill="#FEFFFE" transform="matrix(1.00, 0.00, -0.00, -1.00, 205.4, 104.5)">s</text></g></g><image xlink:href="../../9409D439-7BA2-464F-AB39-138AF91455A1/assets/A9DAC74A6E72198AB7C6B8701C403669.png" width="986.00" height="249.00" transform="matrix(1.00, 0.00, -0.00, -1.00, 28.0, 630.3)" opacity="0.70"></image><image xlink:href="../../9409D439-7BA2-464F-AB39-138AF91455A1/assets/68196985A96A25D287C1C5B714B5D949.png" width="4096.00" height="906.00" transform="matrix(0.23, 0.00, -0.00, -0.23, 48.0, 620.3)"></image></g></svg>