<?xml version="1.0" encoding="UTF-8" standalone="no"?><svg xmlns="http://www.w3.org/2000/svg" xmlns:xlink="http://www.w3.org/1999/xlink" clip-rule="evenodd" stroke-miterlimit="10" viewBox="0 0 1024 768"><desc>SVG generated by Keynote</desc><defs></defs><g transform="matrix(1.00, 0.00, -0.00, -1.00, 0.0, 768.0)"><path d="M 0.0 768.0 L 1024.0 768.0 L 1024.0 0.0 L 0.0 0.0 Z M 0.0 768.0 " fill="#FEFFFF"></path><text xml:space="preserve" font-family="Helvetica-Light,Helvetica" font-size="63.0" fill="#000000" transform="matrix(1.00, 0.00, -0.00, -1.00, 342.2, 662.5)">…</text><text xml:space="preserve" font-family="Helvetica-Light,Helvetica" font-size="63.0" fill="#000000" transform="matrix(1.00, 0.00, -0.00, -1.00, 405.2, 662.5)">a</text><text xml:space="preserve" font-family="Helvetica-Light,Helvetica" font-size="63.0" fill="#000000" transform="matrix(1.00, 0.00, -0.00, -1.00, 440.2, 662.5)">n</text><text xml:space="preserve" font-family="Helvetica-Light,Helvetica" font-size="63.0" fill="#000000" transform="matrix(1.00, 0.00, -0.00, -1.00, 475.2, 662.5)">d</text><text xml:space="preserve" font-family="Helvetica-Light,Helvetica" font-size="63.0" fill="#000000" transform="matrix(1.00, 0.00, -0.00, -1.00, 513.7, 662.5)"> </text><text xml:space="preserve" font-family="Helvetica-Light,Helvetica" font-size="63.0" fill="#000000" transform="matrix(1.00, 0.00, -0.00, -1.00, 531.2, 662.5)">A</text><text xml:space="preserve" font-family="Helvetica-Light,Helvetica" font-size="63.0" fill="#000000" transform="matrix(1.00, 0.00, -0.00, -1.00, 573.3, 662.5)">f</text><text xml:space="preserve" font-family="Helvetica-Light,Helvetica" font-size="63.0" fill="#000000" transform="matrix(1.00, 0.00, -0.00, -1.00, 590.8, 662.5)">t</text><text xml:space="preserve" font-family="Helvetica-Light,Helvetica" font-size="63.0" fill="#000000" transform="matrix(1.00, 0.00, -0.00, -1.00, 608.3, 662.5)">e</text><text xml:space="preserve" font-family="Helvetica-Light,Helvetica" font-size="63.0" fill="#000000" transform="matrix(1.00, 0.00, -0.00, -1.00, 643.3, 662.5)">r</text><text xml:space="preserve" font-family="Helvetica-Light,Helvetica" font-size="63.0" fill="#000000" transform="matrix(1.00, 0.00, -0.00, -1.00, 664.3, 662.5)">:</text><text xml:space="preserve" font-family="Helvetica-Light,Helvetica" font-size="63.0" fill="#000000" transform="matrix(1.00, 0.00, -0.00, -1.00, 681.8, 662.5)"> </text><text xml:space="preserve" font-family="Helvetica-Light,Helvetica" font-size="63.0" fill="#000000" transform="matrix(1.00, 0.00, -0.00, -1.00, 424.5, 586.5)">S</text><text xml:space="preserve" font-family="Helvetica-Light,Helvetica" font-size="63.0" fill="#000000" transform="matrix(1.00, 0.00, -0.00, -1.00, 463.0, 586.5)">t</text><text xml:space="preserve" font-family="Helvetica-Light,Helvetica" font-size="63.0" fill="#000000" transform="matrix(1.00, 0.00, -0.00, -1.00, 480.5, 586.5)">a</text><text xml:space="preserve" font-family="Helvetica-Light,Helvetica" font-size="63.0" fill="#000000" transform="matrix(1.00, 0.00, -0.00, -1.00, 515.5, 586.5)">t</text><text xml:space="preserve" font-family="Helvetica-Light,Helvetica" font-size="63.0" fill="#000000" transform="matrix(1.00, 0.00, -0.00, -1.00, 533.0, 586.5)">e</text><text xml:space="preserve" font-family="Helvetica-Light,Helvetica" font-size="63.0" fill="#000000" transform="matrix(1.00, 0.00, -0.00, -1.00, 568.0, 586.5)">s</text><image xlink:href="../../1C99850F-6866-4284-A28A-42BA07F0DF75/assets/BB876370DB0059364650C7154C0C82A3.png" width="1064.00" height="540.00" transform="matrix(1.00, 0.00, -0.00, -1.00, -20.0, 582.9)" opacity="0.70"></image><image xlink:href="../../1C99850F-6866-4284-A28A-42BA07F0DF75/assets/AE792213A2C7574E03EBBB2CF80CC0A9.jpeg" width="2364.00" height="1154.00" transform="matrix(0.43, 0.00, -0.00, -0.43, 0.0, 572.9)"></image></g></svg>