<?xml version="1.0" encoding="UTF-8" standalone="no"?><svg xmlns="http://www.w3.org/2000/svg" xmlns:xlink="http://www.w3.org/1999/xlink" clip-rule="evenodd" stroke-miterlimit="10" viewBox="0 0 1024 768"><desc>SVG generated by Keynote</desc><defs></defs><g transform="matrix(1.00, 0.00, -0.00, -1.00, 0.0, 768.0)"><path d="M 0.0 768.0 L 1024.0 768.0 L 1024.0 0.0 L 0.0 0.0 Z M 0.0 768.0 " fill="#FEFFFF"></path><g opacity="0.15"><g><clipPath id="clip0x6000008a4800"><path d="M 112.0 747.0 L 912.0 747.0 L 912.0 297.0 L 112.0 297.0 Z M 112.0 747.3 "></path></clipPath><g clip-path="url(#clip0x6000008a4800)"><g><clipPath id="clip0x6000014bd280"><path d="M 111.0 295.0 L 913.0 295.0 L 913.0 749.0 L 111.0 749.0 Z M 111.0 295.0 "></path></clipPath><g clip-path="url(#clip0x6000014bd280)"><image xlink:href="AA7ADA1B3634CA951C0AF87D54683565.png" width="300.00" height="169.00" transform="matrix(2.67, 0.00, -0.00, -2.67, 112.0, 747.3)"></image></g></g></g></g></g><text xml:space="preserve" font-family="Helvetica-Light,Helvetica" font-size="70.4" fill="#000000" transform="matrix(1.00, 0.00, -0.00, -1.00, 171.6, 477.7)">E</text><text xml:space="preserve" font-family="Helvetica-Light,Helvetica" font-size="70.4" fill="#000000" transform="matrix(1.00, 0.00, -0.00, -1.00, 214.6, 477.7)">a</text><text xml:space="preserve" font-family="Helvetica-Light,Helvetica" font-size="70.4" fill="#000000" transform="matrix(1.00, 0.00, -0.00, -1.00, 253.8, 477.7)">s</text><text xml:space="preserve" font-family="Helvetica-Light,Helvetica" font-size="70.4" fill="#000000" transform="matrix(1.00, 0.00, -0.00, -1.00, 289.0, 477.7)">y</text><text xml:space="preserve" font-family="Helvetica-Light,Helvetica" font-size="70.4" fill="#000000" transform="matrix(1.00, 0.00, -0.00, -1.00, 324.2, 477.7)"> </text><text xml:space="preserve" font-family="Helvetica-Light,Helvetica" font-size="70.4" fill="#000000" transform="matrix(1.00, 0.00, -0.00, -1.00, 343.7, 477.7)">O</text><text xml:space="preserve" font-family="Helvetica-Light,Helvetica" font-size="70.4" fill="#000000" transform="matrix(1.00, 0.00, -0.00, -1.00, 398.5, 477.7)">n</text><text xml:space="preserve" font-family="Helvetica-Light,Helvetica" font-size="70.4" fill="#000000" transform="matrix(1.00, 0.00, -0.00, -1.00, 437.7, 477.7)">l</text><text xml:space="preserve" font-family="Helvetica-Light,Helvetica" font-size="70.4" fill="#000000" transform="matrix(1.00, 0.00, -0.00, -1.00, 453.3, 477.7)">i</text><text xml:space="preserve" font-family="Helvetica-Light,Helvetica" font-size="70.4" fill="#000000" transform="matrix(1.00, 0.00, -0.00, -1.00, 468.9, 477.7)">n</text><text xml:space="preserve" font-family="Helvetica-Light,Helvetica" font-size="70.4" fill="#000000" transform="matrix(1.00, 0.00, -0.00, -1.00, 508.1, 477.7)">e</text><text xml:space="preserve" font-family="Helvetica-Light,Helvetica" font-size="70.4" fill="#000000" transform="matrix(1.00, 0.00, -0.00, -1.00, 547.2, 477.7)"> </text><text xml:space="preserve" font-family="Helvetica-Light,Helvetica" font-size="70.4" fill="#000000" transform="matrix(1.00, 0.00, -0.00, -1.00, 566.8, 477.7)">B</text><text xml:space="preserve" font-family="Helvetica-Light,Helvetica" font-size="70.4" fill="#000000" transform="matrix(1.00, 0.00, -0.00, -1.00, 613.7, 477.7)">u</text><text xml:space="preserve" font-family="Helvetica-Light,Helvetica" font-size="70.4" fill="#000000" transform="matrix(1.00, 0.00, -0.00, -1.00, 652.9, 477.7)">s</text><text xml:space="preserve" font-family="Helvetica-Light,Helvetica" font-size="70.4" fill="#000000" transform="matrix(1.00, 0.00, -0.00, -1.00, 688.1, 477.7)">i</text><text xml:space="preserve" font-family="Helvetica-Light,Helvetica" font-size="70.4" fill="#000000" transform="matrix(1.00, 0.00, -0.00, -1.00, 703.7, 477.7)">n</text><text xml:space="preserve" font-family="Helvetica-Light,Helvetica" font-size="70.4" fill="#000000" transform="matrix(1.00, 0.00, -0.00, -1.00, 742.8, 477.7)">e</text><text xml:space="preserve" font-family="Helvetica-Light,Helvetica" font-size="70.4" fill="#000000" transform="matrix(1.00, 0.00, -0.00, -1.00, 782.0, 477.7)">s</text><text xml:space="preserve" font-family="Helvetica-Light,Helvetica" font-size="70.4" fill="#000000" transform="matrix(1.00, 0.00, -0.00, -1.00, 817.2, 477.7)">s</text><text xml:space="preserve" font-family="Helvetica-Light,Helvetica" font-size="70.4" fill="#000000" transform="matrix(1.00, 0.00, -0.00, -1.00, 852.4, 477.7)"> </text><text xml:space="preserve" font-family="Helvetica-Light,Helvetica" font-size="70.4" fill="#000000" transform="matrix(1.00, 0.00, -0.00, -1.00, 178.1, 393.7)">P</text><text xml:space="preserve" font-family="Helvetica-Light,Helvetica" font-size="70.4" fill="#000000" transform="matrix(1.00, 0.00, -0.00, -1.00, 221.1, 393.7)">r</text><text xml:space="preserve" font-family="Helvetica-Light,Helvetica" font-size="70.4" fill="#000000" transform="matrix(1.00, 0.00, -0.00, -1.00, 243.3, 393.7)">o</text><text xml:space="preserve" font-family="Helvetica-Light,Helvetica" font-size="70.4" fill="#000000" transform="matrix(1.00, 0.00, -0.00, -1.00, 282.5, 393.7)">c</text><text xml:space="preserve" font-family="Helvetica-Light,Helvetica" font-size="70.4" fill="#000000" transform="matrix(1.00, 0.00, -0.00, -1.00, 321.6, 393.7)">e</text><text xml:space="preserve" font-family="Helvetica-Light,Helvetica" font-size="70.4" fill="#000000" transform="matrix(1.00, 0.00, -0.00, -1.00, 360.7, 393.7)">s</text><text xml:space="preserve" font-family="Helvetica-Light,Helvetica" font-size="70.4" fill="#000000" transform="matrix(1.00, 0.00, -0.00, -1.00, 395.9, 393.7)">s</text><text xml:space="preserve" font-family="Helvetica-Light,Helvetica" font-size="70.4" fill="#000000" transform="matrix(1.00, 0.00, -0.00, -1.00, 431.1, 393.7)">e</text><text xml:space="preserve" font-family="Helvetica-Light,Helvetica" font-size="70.4" fill="#000000" transform="matrix(1.00, 0.00, -0.00, -1.00, 470.3, 393.7)">s</text><text xml:space="preserve" font-family="Helvetica-Light,Helvetica" font-size="70.4" fill="#000000" transform="matrix(1.00, 0.00, -0.00, -1.00, 505.5, 393.7)"> </text><text xml:space="preserve" font-family="Helvetica-Light,Helvetica" font-size="70.4" fill="#000000" transform="matrix(1.00, 0.00, -0.00, -1.00, 525.1, 393.7)">w</text><text xml:space="preserve" font-family="Helvetica-Light,Helvetica" font-size="70.4" fill="#000000" transform="matrix(1.00, 0.00, -0.00, -1.00, 575.9, 393.7)">i</text><text xml:space="preserve" font-family="Helvetica-Light,Helvetica" font-size="70.4" fill="#000000" transform="matrix(1.00, 0.00, -0.00, -1.00, 591.5, 393.7)">t</text><text xml:space="preserve" font-family="Helvetica-Light,Helvetica" font-size="70.4" fill="#000000" transform="matrix(1.00, 0.00, -0.00, -1.00, 611.1, 393.7)">h</text><text xml:space="preserve" font-family="Helvetica-Light,Helvetica" font-size="70.4" fill="#000000" transform="matrix(1.00, 0.00, -0.00, -1.00, 650.2, 393.7)"> </text><text xml:space="preserve" font-family="Helvetica-Light,Helvetica" font-size="70.4" fill="#000000" transform="matrix(1.00, 0.00, -0.00, -1.00, 669.8, 393.7)">P</text><text xml:space="preserve" font-family="Helvetica-Light,Helvetica" font-size="70.4" fill="#000000" transform="matrix(1.00, 0.00, -0.00, -1.00, 712.8, 393.7)">l</text><text xml:space="preserve" font-family="Helvetica-Light,Helvetica" font-size="70.4" fill="#000000" transform="matrix(1.00, 0.00, -0.00, -1.00, 728.4, 393.7)">o</text><text xml:space="preserve" font-family="Helvetica-Light,Helvetica" font-size="70.4" fill="#000000" transform="matrix(1.00, 0.00, -0.00, -1.00, 767.6, 393.7)">n</text><text xml:space="preserve" font-family="Helvetica-Light,Helvetica" font-size="70.4" fill="#000000" transform="matrix(1.00, 0.00, -0.00, -1.00, 806.7, 393.7)">e</text><text xml:space="preserve" font-family="Helvetica-Light,Helvetica" font-size="70.4" fill="#000000" transform="matrix(1.00, 0.00, -0.00, -1.00, 845.9, 393.7)"> </text><text xml:space="preserve" font-family="Helvetica-Light,Helvetica" font-size="70.4" fill="#000000" transform="matrix(1.00, 0.00, -0.00, -1.00, 190.0, 309.7)">F</text><text xml:space="preserve" font-family="Helvetica-Light,Helvetica" font-size="70.4" fill="#000000" transform="matrix(1.00, 0.00, -0.00, -1.00, 229.1, 309.7)">o</text><text xml:space="preserve" font-family="Helvetica-Light,Helvetica" font-size="70.4" fill="#000000" transform="matrix(1.00, 0.00, -0.00, -1.00, 268.3, 309.7)">r</text><text xml:space="preserve" font-family="Helvetica-Light,Helvetica" font-size="70.4" fill="#000000" transform="matrix(1.00, 0.00, -0.00, -1.00, 293.0, 309.7)">m</text><text xml:space="preserve" font-family="Helvetica-Light,Helvetica" font-size="70.4" fill="#000000" transform="matrix(1.00, 0.00, -0.00, -1.00, 351.6, 309.7)">s</text><text xml:space="preserve" font-family="Helvetica-Light,Helvetica" font-size="70.4" fill="#000000" transform="matrix(1.00, 0.00, -0.00, -1.00, 386.8, 309.7)"> </text><text xml:space="preserve" font-family="Helvetica-Light,Helvetica" font-size="70.4" fill="#000000" transform="matrix(1.00, 0.00, -0.00, -1.00, 406.4, 309.7)">a</text><text xml:space="preserve" font-family="Helvetica-Light,Helvetica" font-size="70.4" fill="#000000" transform="matrix(1.00, 0.00, -0.00, -1.00, 445.6, 309.7)">n</text><text xml:space="preserve" font-family="Helvetica-Light,Helvetica" font-size="70.4" fill="#000000" transform="matrix(1.00, 0.00, -0.00, -1.00, 484.7, 309.7)">d</text><text xml:space="preserve" font-family="Helvetica-Light,Helvetica" font-size="70.4" fill="#000000" transform="matrix(1.00, 0.00, -0.00, -1.00, 527.7, 309.7)"> </text><text xml:space="preserve" font-family="Helvetica-Light,Helvetica" font-size="70.4" fill="#000000" transform="matrix(1.00, 0.00, -0.00, -1.00, 547.3, 309.7)">W</text><text xml:space="preserve" font-family="Helvetica-Light,Helvetica" font-size="70.4" fill="#000000" transform="matrix(1.00, 0.00, -0.00, -1.00, 608.6, 309.7)">o</text><text xml:space="preserve" font-family="Helvetica-Light,Helvetica" font-size="70.4" fill="#000000" transform="matrix(1.00, 0.00, -0.00, -1.00, 647.7, 309.7)">r</text><text xml:space="preserve" font-family="Helvetica-Light,Helvetica" font-size="70.4" fill="#000000" transform="matrix(1.00, 0.00, -0.00, -1.00, 671.2, 309.7)">k</text><text xml:space="preserve" font-family="Helvetica-Light,Helvetica" font-size="70.4" fill="#000000" transform="matrix(1.00, 0.00, -0.00, -1.00, 706.4, 309.7)">ﬂ</text><text xml:space="preserve" font-family="Helvetica-Light,Helvetica" font-size="70.4" fill="#000000" transform="matrix(1.00, 0.00, -0.00, -1.00, 741.6, 309.7)">o</text><text xml:space="preserve" font-family="Helvetica-Light,Helvetica" font-size="70.4" fill="#000000" transform="matrix(1.00, 0.00, -0.00, -1.00, 780.7, 309.7)">w</text><text xml:space="preserve" font-family="Helvetica-Light,Helvetica" font-size="70.4" fill="#000000" transform="matrix(1.00, 0.00, -0.00, -1.00, 831.6, 309.7)"> </text><text xml:space="preserve" font-family="Helvetica-Light,Helvetica" font-size="32.0" fill="#000000" transform="matrix(1.00, 0.00, -0.00, -1.00, 169.6, 247.9)">f</text><text xml:space="preserve" font-family="Helvetica-Light,Helvetica" font-size="32.0" fill="#000000" transform="matrix(1.00, 0.00, -0.00, -1.00, 178.5, 247.9)">o</text><text xml:space="preserve" font-family="Helvetica-Light,Helvetica" font-size="32.0" fill="#000000" transform="matrix(1.00, 0.00, -0.00, -1.00, 196.3, 247.9)">r</text><text xml:space="preserve" font-family="Helvetica-Light,Helvetica" font-size="32.0" fill="#000000" transform="matrix(1.00, 0.00, -0.00, -1.00, 207.0, 247.9)"> </text><text xml:space="preserve" font-family="Helvetica-Light,Helvetica" font-size="32.0" fill="#000000" transform="matrix(1.00, 0.00, -0.00, -1.00, 215.9, 247.9)">M</text><text xml:space="preserve" font-family="Helvetica-Light,Helvetica" font-size="32.0" fill="#000000" transform="matrix(1.00, 0.00, -0.00, -1.00, 242.5, 247.9)">a</text><text xml:space="preserve" font-family="Helvetica-Light,Helvetica" font-size="32.0" fill="#000000" transform="matrix(1.00, 0.00, -0.00, -1.00, 260.3, 247.9)">k</text><text xml:space="preserve" font-family="Helvetica-Light,Helvetica" font-size="32.0" fill="#000000" transform="matrix(1.00, 0.00, -0.00, -1.00, 276.3, 247.9)">e</text><text xml:space="preserve" font-family="Helvetica-Light,Helvetica" font-size="32.0" fill="#000000" transform="matrix(1.00, 0.00, -0.00, -1.00, 294.1, 247.9)"> </text><text xml:space="preserve" font-family="Helvetica-Light,Helvetica" font-size="32.0" fill="#000000" transform="matrix(1.00, 0.00, -0.00, -1.00, 303.0, 247.9)">B</text><text xml:space="preserve" font-family="Helvetica-Light,Helvetica" font-size="32.0" fill="#000000" transform="matrix(1.00, 0.00, -0.00, -1.00, 324.4, 247.9)">e</text><text xml:space="preserve" font-family="Helvetica-Light,Helvetica" font-size="32.0" fill="#000000" transform="matrix(1.00, 0.00, -0.00, -1.00, 342.1, 247.9)">n</text><text xml:space="preserve" font-family="Helvetica-Light,Helvetica" font-size="32.0" fill="#000000" transform="matrix(1.00, 0.00, -0.00, -1.00, 359.9, 247.9)">e</text><text xml:space="preserve" font-family="Helvetica-Light,Helvetica" font-size="32.0" fill="#000000" transform="matrix(1.00, 0.00, -0.00, -1.00, 377.7, 247.9)">ﬁ</text><text xml:space="preserve" font-family="Helvetica-Light,Helvetica" font-size="32.0" fill="#000000" transform="matrix(1.00, 0.00, -0.00, -1.00, 393.7, 247.9)">t</text><text xml:space="preserve" font-family="Helvetica-Light,Helvetica" font-size="32.0" fill="#000000" transform="matrix(1.00, 0.00, -0.00, -1.00, 402.6, 247.9)"> </text><text xml:space="preserve" font-family="Helvetica-Light,Helvetica" font-size="32.0" fill="#000000" transform="matrix(1.00, 0.00, -0.00, -1.00, 411.5, 247.9)">G</text><text xml:space="preserve" font-family="Helvetica-Light,Helvetica" font-size="32.0" fill="#000000" transform="matrix(1.00, 0.00, -0.00, -1.00, 436.4, 247.9)">l</text><text xml:space="preserve" font-family="Helvetica-Light,Helvetica" font-size="32.0" fill="#000000" transform="matrix(1.00, 0.00, -0.00, -1.00, 443.5, 247.9)">o</text><text xml:space="preserve" font-family="Helvetica-Light,Helvetica" font-size="32.0" fill="#000000" transform="matrix(1.00, 0.00, -0.00, -1.00, 461.3, 247.9)">r</text><text xml:space="preserve" font-family="Helvetica-Light,Helvetica" font-size="32.0" fill="#000000" transform="matrix(1.00, 0.00, -0.00, -1.00, 472.0, 247.9)">i</text><text xml:space="preserve" font-family="Helvetica-Light,Helvetica" font-size="32.0" fill="#000000" transform="matrix(1.00, 0.00, -0.00, -1.00, 479.1, 247.9)">o</text><text xml:space="preserve" font-family="Helvetica-Light,Helvetica" font-size="32.0" fill="#000000" transform="matrix(1.00, 0.00, -0.00, -1.00, 496.9, 247.9)">u</text><text xml:space="preserve" font-family="Helvetica-Light,Helvetica" font-size="32.0" fill="#000000" transform="matrix(1.00, 0.00, -0.00, -1.00, 514.7, 247.9)">s</text><text xml:space="preserve" font-family="Helvetica-Light,Helvetica" font-size="32.0" fill="#000000" transform="matrix(1.00, 0.00, -0.00, -1.00, 530.7, 247.9)"> </text><text xml:space="preserve" font-family="Helvetica-Light,Helvetica" font-size="32.0" fill="#000000" transform="matrix(1.00, 0.00, -0.00, -1.00, 539.6, 247.9)">N</text><text xml:space="preserve" font-family="Helvetica-Light,Helvetica" font-size="32.0" fill="#000000" transform="matrix(1.00, 0.00, -0.00, -1.00, 562.7, 247.9)">a</text><text xml:space="preserve" font-family="Helvetica-Light,Helvetica" font-size="32.0" fill="#000000" transform="matrix(1.00, 0.00, -0.00, -1.00, 580.4, 247.9)">t</text><text xml:space="preserve" font-family="Helvetica-Light,Helvetica" font-size="32.0" fill="#000000" transform="matrix(1.00, 0.00, -0.00, -1.00, 589.3, 247.9)">i</text><text xml:space="preserve" font-family="Helvetica-Light,Helvetica" font-size="32.0" fill="#000000" transform="matrix(1.00, 0.00, -0.00, -1.00, 596.4, 247.9)">o</text><text xml:space="preserve" font-family="Helvetica-Light,Helvetica" font-size="32.0" fill="#000000" transform="matrix(1.00, 0.00, -0.00, -1.00, 614.2, 247.9)">n</text><text xml:space="preserve" font-family="Helvetica-Light,Helvetica" font-size="32.0" fill="#000000" transform="matrix(1.00, 0.00, -0.00, -1.00, 632.0, 247.9)"> </text><text xml:space="preserve" font-family="Helvetica-Light,Helvetica" font-size="32.0" fill="#000000" transform="matrix(1.00, 0.00, -0.00, -1.00, 640.9, 247.9)">o</text><text xml:space="preserve" font-family="Helvetica-Light,Helvetica" font-size="32.0" fill="#000000" transform="matrix(1.00, 0.00, -0.00, -1.00, 658.7, 247.9)">f</text><text xml:space="preserve" font-family="Helvetica-Light,Helvetica" font-size="32.0" fill="#000000" transform="matrix(1.00, 0.00, -0.00, -1.00, 667.6, 247.9)"> </text><text xml:space="preserve" font-family="Helvetica-Light,Helvetica" font-size="32.0" fill="#000000" transform="matrix(1.00, 0.00, -0.00, -1.00, 676.5, 247.9)">C</text><text xml:space="preserve" font-family="Helvetica-Light,Helvetica" font-size="32.0" fill="#000000" transform="matrix(1.00, 0.00, -0.00, -1.00, 699.6, 247.9)">a</text><text xml:space="preserve" font-family="Helvetica-Light,Helvetica" font-size="32.0" fill="#000000" transform="matrix(1.00, 0.00, -0.00, -1.00, 717.4, 247.9)">n</text><text xml:space="preserve" font-family="Helvetica-Light,Helvetica" font-size="32.0" fill="#000000" transform="matrix(1.00, 0.00, -0.00, -1.00, 735.2, 247.9)">u</text><text xml:space="preserve" font-family="Helvetica-Light,Helvetica" font-size="32.0" fill="#000000" transform="matrix(1.00, 0.00, -0.00, -1.00, 753.0, 247.9)">c</text><text xml:space="preserve" font-family="Helvetica-Light,Helvetica" font-size="32.0" fill="#000000" transform="matrix(1.00, 0.00, -0.00, -1.00, 770.8, 247.9)">k</text><text xml:space="preserve" font-family="Helvetica-Light,Helvetica" font-size="32.0" fill="#000000" transform="matrix(1.00, 0.00, -0.00, -1.00, 786.8, 247.9)">i</text><text xml:space="preserve" font-family="Helvetica-Light,Helvetica" font-size="32.0" fill="#000000" transform="matrix(1.00, 0.00, -0.00, -1.00, 793.9, 247.9)">s</text><text xml:space="preserve" font-family="Helvetica-Light,Helvetica" font-size="32.0" fill="#000000" transform="matrix(1.00, 0.00, -0.00, -1.00, 809.9, 247.9)">t</text><text xml:space="preserve" font-family="Helvetica-Light,Helvetica" font-size="32.0" fill="#000000" transform="matrix(1.00, 0.00, -0.00, -1.00, 818.8, 247.9)">a</text><text xml:space="preserve" font-family="Helvetica-Light,Helvetica" font-size="32.0" fill="#000000" transform="matrix(1.00, 0.00, -0.00, -1.00, 836.6, 247.9)">n</text><text xml:space="preserve" font-family="Helvetica-Light,Helvetica" font-size="22.7" fill="#000000" transform="matrix(1.00, 0.00, -0.00, -1.00, 317.4, 168.7)">T</text><text xml:space="preserve" font-family="Helvetica-Light,Helvetica" font-size="22.7" fill="#000000" transform="matrix(1.00, 0.00, -0.00, -1.00, 327.6, 168.7)">.</text><text xml:space="preserve" font-family="Helvetica-Light,Helvetica" font-size="22.7" fill="#000000" transform="matrix(1.00, 0.00, -0.00, -1.00, 333.9, 168.7)"> </text><text xml:space="preserve" font-family="Helvetica-Light,Helvetica" font-size="22.7" fill="#000000" transform="matrix(1.00, 0.00, -0.00, -1.00, 340.2, 168.7)">K</text><text xml:space="preserve" font-family="Helvetica-Light,Helvetica" font-size="22.7" fill="#000000" transform="matrix(1.00, 0.00, -0.00, -1.00, 355.3, 168.7)">i</text><text xml:space="preserve" font-family="Helvetica-Light,Helvetica" font-size="22.7" fill="#000000" transform="matrix(1.00, 0.00, -0.00, -1.00, 360.4, 168.7)">m</text><text xml:space="preserve" font-family="Helvetica-Light,Helvetica" font-size="22.7" fill="#000000" transform="matrix(1.00, 0.00, -0.00, -1.00, 379.3, 168.7)"> </text><text xml:space="preserve" font-family="Helvetica-Light,Helvetica" font-size="22.7" fill="#000000" transform="matrix(1.00, 0.00, -0.00, -1.00, 385.6, 168.7)">N</text><text xml:space="preserve" font-family="Helvetica-Light,Helvetica" font-size="22.7" fill="#000000" transform="matrix(1.00, 0.00, -0.00, -1.00, 402.0, 168.7)">g</text><text xml:space="preserve" font-family="Helvetica-Light,Helvetica" font-size="22.7" fill="#000000" transform="matrix(1.00, 0.00, -0.00, -1.00, 415.9, 168.7)">u</text><text xml:space="preserve" font-family="Helvetica-Light,Helvetica" font-size="22.7" fill="#000000" transform="matrix(1.00, 0.00, -0.00, -1.00, 428.5, 168.7)">y</text><text xml:space="preserve" font-family="Helvetica-Light,Helvetica" font-size="22.7" fill="#000000" transform="matrix(1.00, 0.00, -0.00, -1.00, 439.9, 168.7)">e</text><text xml:space="preserve" font-family="Helvetica-Light,Helvetica" font-size="22.7" fill="#000000" transform="matrix(1.00, 0.00, -0.00, -1.00, 452.5, 168.7)">n</text><text xml:space="preserve" font-family="Helvetica-Light,Helvetica" font-size="22.7" fill="#000000" transform="matrix(1.00, 0.00, -0.00, -1.00, 465.2, 168.7)"> </text><text xml:space="preserve" font-family="Helvetica-Light,Helvetica" font-size="22.7" fill="#000000" transform="matrix(1.00, 0.00, -0.00, -1.00, 471.5, 168.7)">&lt;</text><text xml:space="preserve" font-family="Helvetica-Light,Helvetica" font-size="22.7" fill="#000000" transform="matrix(1.00, 0.00, -0.00, -1.00, 486.5, 168.7)">n</text><text xml:space="preserve" font-family="Helvetica-Light,Helvetica" font-size="22.7" fill="#000000" transform="matrix(1.00, 0.00, -0.00, -1.00, 499.1, 168.7)">g</text><text xml:space="preserve" font-family="Helvetica-Light,Helvetica" font-size="22.7" fill="#000000" transform="matrix(1.00, 0.00, -0.00, -1.00, 513.0, 168.7)">u</text><text xml:space="preserve" font-family="Helvetica-Light,Helvetica" font-size="22.7" fill="#000000" transform="matrix(1.00, 0.00, -0.00, -1.00, 525.6, 168.7)">y</text><text xml:space="preserve" font-family="Helvetica-Light,Helvetica" font-size="22.7" fill="#000000" transform="matrix(1.00, 0.00, -0.00, -1.00, 537.0, 168.7)">e</text><text xml:space="preserve" font-family="Helvetica-Light,Helvetica" font-size="22.7" fill="#000000" transform="matrix(1.00, 0.00, -0.00, -1.00, 549.6, 168.7)">n</text><text xml:space="preserve" font-family="Helvetica-Light,Helvetica" font-size="22.7" fill="#000000" transform="matrix(1.00, 0.00, -0.00, -1.00, 562.3, 168.7)">@</text><text xml:space="preserve" font-family="Helvetica-Light,Helvetica" font-size="22.7" fill="#000000" transform="matrix(1.00, 0.00, -0.00, -1.00, 580.4, 168.7)">u</text><text xml:space="preserve" font-family="Helvetica-Light,Helvetica" font-size="22.7" fill="#000000" transform="matrix(1.00, 0.00, -0.00, -1.00, 593.1, 168.7)">w</text><text xml:space="preserve" font-family="Helvetica-Light,Helvetica" font-size="22.7" fill="#000000" transform="matrix(1.00, 0.00, -0.00, -1.00, 609.5, 168.7)">o</text><text xml:space="preserve" font-family="Helvetica-Light,Helvetica" font-size="22.7" fill="#000000" transform="matrix(1.00, 0.00, -0.00, -1.00, 622.1, 168.7)">s</text><text xml:space="preserve" font-family="Helvetica-Light,Helvetica" font-size="22.7" fill="#000000" transform="matrix(1.00, 0.00, -0.00, -1.00, 633.5, 168.7)">h</text><text xml:space="preserve" font-family="Helvetica-Light,Helvetica" font-size="22.7" fill="#000000" transform="matrix(1.00, 0.00, -0.00, -1.00, 646.1, 168.7)">.</text><text xml:space="preserve" font-family="Helvetica-Light,Helvetica" font-size="22.7" fill="#000000" transform="matrix(1.00, 0.00, -0.00, -1.00, 652.4, 168.7)">e</text><text xml:space="preserve" font-family="Helvetica-Light,Helvetica" font-size="22.7" fill="#000000" transform="matrix(1.00, 0.00, -0.00, -1.00, 665.0, 168.7)">d</text><text xml:space="preserve" font-family="Helvetica-Light,Helvetica" font-size="22.7" fill="#000000" transform="matrix(1.00, 0.00, -0.00, -1.00, 678.9, 168.7)">u</text><text xml:space="preserve" font-family="Helvetica-Light,Helvetica" font-size="22.7" fill="#000000" transform="matrix(1.00, 0.00, -0.00, -1.00, 691.6, 168.7)">&gt;</text><text xml:space="preserve" font-family="Helvetica-Light,Helvetica" font-size="22.7" fill="#000000" transform="matrix(1.00, 0.00, -0.00, -1.00, 706.6, 168.7)"> </text><g><clipPath id="clip0x600000abac40"><path d="M 485.5 165.5 L 691.6 165.5 L 691.6 168.6 L 485.5 168.6 Z M 485.5 165.5 "></path></clipPath><g clip-path="url(#clip0x600000abac40)"><path d="M 386.5 26.5 L 591.6 26.5 " fill="none" stroke="#000000" stroke-width="1.14" transform="matrix(1.00, 0.00, 0.00, -1.00, 100.0, 193.5)"></path></g></g><text xml:space="preserve" font-family="Helvetica-Light,Helvetica" font-size="22.7" fill="#000000" transform="matrix(1.00, 0.00, -0.00, -1.00, 346.6, 142.7)">U</text><text xml:space="preserve" font-family="Helvetica-Light,Helvetica" font-size="22.7" fill="#000000" transform="matrix(1.00, 0.00, -0.00, -1.00, 363.0, 142.7)">n</text><text xml:space="preserve" font-family="Helvetica-Light,Helvetica" font-size="22.7" fill="#000000" transform="matrix(1.00, 0.00, -0.00, -1.00, 375.6, 142.7)">i</text><text xml:space="preserve" font-family="Helvetica-Light,Helvetica" font-size="22.7" fill="#000000" transform="matrix(1.00, 0.00, -0.00, -1.00, 380.7, 142.7)">v</text><text xml:space="preserve" font-family="Helvetica-Light,Helvetica" font-size="22.7" fill="#000000" transform="matrix(1.00, 0.00, -0.00, -1.00, 392.0, 142.7)">e</text><text xml:space="preserve" font-family="Helvetica-Light,Helvetica" font-size="22.7" fill="#000000" transform="matrix(1.00, 0.00, -0.00, -1.00, 404.7, 142.7)">r</text><text xml:space="preserve" font-family="Helvetica-Light,Helvetica" font-size="22.7" fill="#000000" transform="matrix(1.00, 0.00, -0.00, -1.00, 412.2, 142.7)">s</text><text xml:space="preserve" font-family="Helvetica-Light,Helvetica" font-size="22.7" fill="#000000" transform="matrix(1.00, 0.00, -0.00, -1.00, 423.6, 142.7)">i</text><text xml:space="preserve" font-family="Helvetica-Light,Helvetica" font-size="22.7" fill="#000000" transform="matrix(1.00, 0.00, -0.00, -1.00, 428.6, 142.7)">t</text><text xml:space="preserve" font-family="Helvetica-Light,Helvetica" font-size="22.7" fill="#000000" transform="matrix(1.00, 0.00, -0.00, -1.00, 435.0, 142.7)">y</text><text xml:space="preserve" font-family="Helvetica-Light,Helvetica" font-size="22.7" fill="#000000" transform="matrix(1.00, 0.00, -0.00, -1.00, 446.3, 142.7)"> </text><text xml:space="preserve" font-family="Helvetica-Light,Helvetica" font-size="22.7" fill="#000000" transform="matrix(1.00, 0.00, -0.00, -1.00, 452.6, 142.7)">o</text><text xml:space="preserve" font-family="Helvetica-Light,Helvetica" font-size="22.7" fill="#000000" transform="matrix(1.00, 0.00, -0.00, -1.00, 465.3, 142.7)">f</text><text xml:space="preserve" font-family="Helvetica-Light,Helvetica" font-size="22.7" fill="#000000" transform="matrix(1.00, 0.00, -0.00, -1.00, 471.6, 142.7)"> </text><text xml:space="preserve" font-family="Helvetica-Light,Helvetica" font-size="22.7" fill="#000000" transform="matrix(1.00, 0.00, -0.00, -1.00, 477.9, 142.7)">W</text><text xml:space="preserve" font-family="Helvetica-Light,Helvetica" font-size="22.7" fill="#000000" transform="matrix(1.00, 0.00, -0.00, -1.00, 498.1, 142.7)">i</text><text xml:space="preserve" font-family="Helvetica-Light,Helvetica" font-size="22.7" fill="#000000" transform="matrix(1.00, 0.00, -0.00, -1.00, 503.1, 142.7)">s</text><text xml:space="preserve" font-family="Helvetica-Light,Helvetica" font-size="22.7" fill="#000000" transform="matrix(1.00, 0.00, -0.00, -1.00, 514.5, 142.7)">c</text><text xml:space="preserve" font-family="Helvetica-Light,Helvetica" font-size="22.7" fill="#000000" transform="matrix(1.00, 0.00, -0.00, -1.00, 527.1, 142.7)">o</text><text xml:space="preserve" font-family="Helvetica-Light,Helvetica" font-size="22.7" fill="#000000" transform="matrix(1.00, 0.00, -0.00, -1.00, 539.8, 142.7)">n</text><text xml:space="preserve" font-family="Helvetica-Light,Helvetica" font-size="22.7" fill="#000000" transform="matrix(1.00, 0.00, -0.00, -1.00, 552.4, 142.7)">s</text><text xml:space="preserve" font-family="Helvetica-Light,Helvetica" font-size="22.7" fill="#000000" transform="matrix(1.00, 0.00, -0.00, -1.00, 563.8, 142.7)">i</text><text xml:space="preserve" font-family="Helvetica-Light,Helvetica" font-size="22.7" fill="#000000" transform="matrix(1.00, 0.00, -0.00, -1.00, 568.8, 142.7)">n</text><text xml:space="preserve" font-family="Helvetica-Light,Helvetica" font-size="22.7" fill="#000000" transform="matrix(1.00, 0.00, -0.00, -1.00, 581.4, 142.7)"> </text><text xml:space="preserve" font-family="Helvetica-Light,Helvetica" font-size="22.7" fill="#000000" transform="matrix(1.00, 0.00, -0.00, -1.00, 587.7, 142.7)">O</text><text xml:space="preserve" font-family="Helvetica-Light,Helvetica" font-size="22.7" fill="#000000" transform="matrix(1.00, 0.00, -0.00, -1.00, 605.4, 142.7)">s</text><text xml:space="preserve" font-family="Helvetica-Light,Helvetica" font-size="22.7" fill="#000000" transform="matrix(1.00, 0.00, -0.00, -1.00, 616.8, 142.7)">h</text><text xml:space="preserve" font-family="Helvetica-Light,Helvetica" font-size="22.7" fill="#000000" transform="matrix(1.00, 0.00, -0.00, -1.00, 629.4, 142.7)">k</text><text xml:space="preserve" font-family="Helvetica-Light,Helvetica" font-size="22.7" fill="#000000" transform="matrix(1.00, 0.00, -0.00, -1.00, 640.8, 142.7)">o</text><text xml:space="preserve" font-family="Helvetica-Light,Helvetica" font-size="22.7" fill="#000000" transform="matrix(1.00, 0.00, -0.00, -1.00, 653.4, 142.7)">s</text><text xml:space="preserve" font-family="Helvetica-Light,Helvetica" font-size="22.7" fill="#000000" transform="matrix(1.00, 0.00, -0.00, -1.00, 664.8, 142.7)">h</text><text xml:space="preserve" font-family="Helvetica-Light,Helvetica" font-size="22.7" fill="#000000" transform="matrix(1.00, 0.00, -0.00, -1.00, 677.4, 142.7)"> </text><text xml:space="preserve" font-family="Helvetica-Light,Helvetica" font-size="22.7" fill="#000000" transform="matrix(1.00, 0.00, -0.00, -1.00, 355.0, 116.7)">h</text><text xml:space="preserve" font-family="Helvetica-Light,Helvetica" font-size="22.7" fill="#000000" transform="matrix(1.00, 0.00, -0.00, -1.00, 367.6, 116.7)">t</text><text xml:space="preserve" font-family="Helvetica-Light,Helvetica" font-size="22.7" fill="#000000" transform="matrix(1.00, 0.00, -0.00, -1.00, 373.9, 116.7)">t</text><text xml:space="preserve" font-family="Helvetica-Light,Helvetica" font-size="22.7" fill="#000000" transform="matrix(1.00, 0.00, -0.00, -1.00, 380.3, 116.7)">p</text><text xml:space="preserve" font-family="Helvetica-Light,Helvetica" font-size="22.7" fill="#000000" transform="matrix(1.00, 0.00, -0.00, -1.00, 394.1, 116.7)">:</text><text xml:space="preserve" font-family="Helvetica-Light,Helvetica" font-size="22.7" fill="#000000" transform="matrix(1.00, 0.00, -0.00, -1.00, 400.5, 116.7)">/</text><text xml:space="preserve" font-family="Helvetica-Light,Helvetica" font-size="22.7" fill="#000000" transform="matrix(1.00, 0.00, -0.00, -1.00, 406.8, 116.7)">/</text><text xml:space="preserve" font-family="Helvetica-Light,Helvetica" font-size="22.7" fill="#000000" transform="matrix(1.00, 0.00, -0.00, -1.00, 413.1, 116.7)">u</text><text xml:space="preserve" font-family="Helvetica-Light,Helvetica" font-size="22.7" fill="#000000" transform="matrix(1.00, 0.00, -0.00, -1.00, 425.7, 116.7)">w</text><text xml:space="preserve" font-family="Helvetica-Light,Helvetica" font-size="22.7" fill="#000000" transform="matrix(1.00, 0.00, -0.00, -1.00, 442.1, 116.7)">o</text><text xml:space="preserve" font-family="Helvetica-Light,Helvetica" font-size="22.7" fill="#000000" transform="matrix(1.00, 0.00, -0.00, -1.00, 454.8, 116.7)">s</text><text xml:space="preserve" font-family="Helvetica-Light,Helvetica" font-size="22.7" fill="#000000" transform="matrix(1.00, 0.00, -0.00, -1.00, 466.1, 116.7)">h</text><text xml:space="preserve" font-family="Helvetica-Light,Helvetica" font-size="22.7" fill="#000000" transform="matrix(1.00, 0.00, -0.00, -1.00, 478.7, 116.7)">.</text><text xml:space="preserve" font-family="Helvetica-Light,Helvetica" font-size="22.7" fill="#000000" transform="matrix(1.00, 0.00, -0.00, -1.00, 485.1, 116.7)">e</text><text xml:space="preserve" font-family="Helvetica-Light,Helvetica" font-size="22.7" fill="#000000" transform="matrix(1.00, 0.00, -0.00, -1.00, 497.7, 116.7)">d</text><text xml:space="preserve" font-family="Helvetica-Light,Helvetica" font-size="22.7" fill="#000000" transform="matrix(1.00, 0.00, -0.00, -1.00, 511.6, 116.7)">u</text><text xml:space="preserve" font-family="Helvetica-Light,Helvetica" font-size="22.7" fill="#000000" transform="matrix(1.00, 0.00, -0.00, -1.00, 524.2, 116.7)">/</text><text xml:space="preserve" font-family="Helvetica-Light,Helvetica" font-size="22.7" fill="#000000" transform="matrix(1.00, 0.00, -0.00, -1.00, 530.5, 116.7)">p</text><text xml:space="preserve" font-family="Helvetica-Light,Helvetica" font-size="22.7" fill="#000000" transform="matrix(1.00, 0.00, -0.00, -1.00, 544.4, 116.7)">l</text><text xml:space="preserve" font-family="Helvetica-Light,Helvetica" font-size="22.7" fill="#000000" transform="matrix(1.00, 0.00, -0.00, -1.00, 549.5, 116.7)">o</text><text xml:space="preserve" font-family="Helvetica-Light,Helvetica" font-size="22.7" fill="#000000" transform="matrix(1.00, 0.00, -0.00, -1.00, 562.1, 116.7)">n</text><text xml:space="preserve" font-family="Helvetica-Light,Helvetica" font-size="22.7" fill="#000000" transform="matrix(1.00, 0.00, -0.00, -1.00, 574.7, 116.7)">e</text><text xml:space="preserve" font-family="Helvetica-Light,Helvetica" font-size="22.7" fill="#000000" transform="matrix(1.00, 0.00, -0.00, -1.00, 587.4, 116.7)">p</text><text xml:space="preserve" font-family="Helvetica-Light,Helvetica" font-size="22.7" fill="#000000" transform="matrix(1.00, 0.00, -0.00, -1.00, 601.2, 116.7)">r</text><text xml:space="preserve" font-family="Helvetica-Light,Helvetica" font-size="22.7" fill="#000000" transform="matrix(1.00, 0.00, -0.00, -1.00, 608.4, 116.7)">o</text><text xml:space="preserve" font-family="Helvetica-Light,Helvetica" font-size="22.7" fill="#000000" transform="matrix(1.00, 0.00, -0.00, -1.00, 621.0, 116.7)">j</text><text xml:space="preserve" font-family="Helvetica-Light,Helvetica" font-size="22.7" fill="#000000" transform="matrix(1.00, 0.00, -0.00, -1.00, 626.1, 116.7)">e</text><text xml:space="preserve" font-family="Helvetica-Light,Helvetica" font-size="22.7" fill="#000000" transform="matrix(1.00, 0.00, -0.00, -1.00, 638.7, 116.7)">c</text><text xml:space="preserve" font-family="Helvetica-Light,Helvetica" font-size="22.7" fill="#000000" transform="matrix(1.00, 0.00, -0.00, -1.00, 651.3, 116.7)">t</text><text xml:space="preserve" font-family="Helvetica-Light,Helvetica" font-size="22.7" fill="#000000" transform="matrix(1.00, 0.00, -0.00, -1.00, 657.6, 116.7)">s</text><g><clipPath id="clip0x600000eac7e0"><path d="M 354.0 113.5 L 669.0 113.5 L 669.0 116.6 L 354.0 116.6 Z M 354.0 113.5 "></path></clipPath><g clip-path="url(#clip0x600000eac7e0)"><path d="M 255.0 78.5 L 569.0 78.5 " fill="none" stroke="#000000" stroke-width="1.14" transform="matrix(1.00, 0.00, 0.00, -1.00, 100.0, 193.5)"></path></g></g></g></svg>