<?xml version="1.0" encoding="UTF-8" standalone="no"?><svg xmlns="http://www.w3.org/2000/svg" xmlns:xlink="http://www.w3.org/1999/xlink" clip-rule="evenodd" stroke-miterlimit="10" viewBox="0 0 1024 768"><desc>SVG generated by Keynote</desc><defs></defs><g transform="matrix(1.00, 0.00, -0.00, -1.00, 0.0, 768.0)"><path d="M 0.0 768.0 L 1024.0 768.0 L 1024.0 0.0 L 0.0 0.0 Z M 0.0 768.0 " fill="#FEFFFF"></path><text xml:space="preserve" font-family="Helvetica-Light,Helvetica" font-size="58.4" fill="#000000" transform="matrix(1.00, 0.00, -0.00, -1.00, 236.3, 671.4)">D</text><text xml:space="preserve" font-family="Helvetica-Light,Helvetica" font-size="58.4" fill="#000000" transform="matrix(1.00, 0.00, -0.00, -1.00, 278.5, 671.4)">i</text><text xml:space="preserve" font-family="Helvetica-Light,Helvetica" font-size="58.4" fill="#000000" transform="matrix(1.00, 0.00, -0.00, -1.00, 291.4, 671.4)">s</text><text xml:space="preserve" font-family="Helvetica-Light,Helvetica" font-size="58.4" fill="#000000" transform="matrix(1.00, 0.00, -0.00, -1.00, 320.6, 671.4)">p</text><text xml:space="preserve" font-family="Helvetica-Light,Helvetica" font-size="58.4" fill="#000000" transform="matrix(1.00, 0.00, -0.00, -1.00, 356.3, 671.4)">l</text><text xml:space="preserve" font-family="Helvetica-Light,Helvetica" font-size="58.4" fill="#000000" transform="matrix(1.00, 0.00, -0.00, -1.00, 369.3, 671.4)">a</text><text xml:space="preserve" font-family="Helvetica-Light,Helvetica" font-size="58.4" fill="#000000" transform="matrix(1.00, 0.00, -0.00, -1.00, 401.7, 671.4)">y</text><text xml:space="preserve" font-family="Helvetica-Light,Helvetica" font-size="58.4" fill="#000000" transform="matrix(1.00, 0.00, -0.00, -1.00, 430.9, 671.4)"> </text><text xml:space="preserve" font-family="ZapfDingbatsITC,Zapf Dingbats" font-size="58.4" fill="#000000" transform="matrix(1.00, 0.00, -0.00, -1.00, 447.2, 671.4)">➡</text><text xml:space="preserve" font-family="Helvetica-Light,Helvetica" font-size="58.4" fill="#000000" transform="matrix(1.00, 0.00, -0.00, -1.00, 495.5, 671.4)"> </text><text xml:space="preserve" font-family="Helvetica-Light,Helvetica" font-size="58.4" fill="#000000" transform="matrix(1.00, 0.00, -0.00, -1.00, 511.8, 671.4)">A</text><text xml:space="preserve" font-family="Helvetica-Light,Helvetica" font-size="58.4" fill="#000000" transform="matrix(1.00, 0.00, -0.00, -1.00, 550.7, 671.4)">l</text><text xml:space="preserve" font-family="Helvetica-Light,Helvetica" font-size="58.4" fill="#000000" transform="matrix(1.00, 0.00, -0.00, -1.00, 563.7, 671.4)">l</text><text xml:space="preserve" font-family="Helvetica-Light,Helvetica" font-size="58.4" fill="#000000" transform="matrix(1.00, 0.00, -0.00, -1.00, 576.7, 671.4)"> </text><text xml:space="preserve" font-family="Helvetica-Light,Helvetica" font-size="58.4" fill="#000000" transform="matrix(1.00, 0.00, -0.00, -1.00, 592.9, 671.4)">c</text><text xml:space="preserve" font-family="Helvetica-Light,Helvetica" font-size="58.4" fill="#000000" transform="matrix(1.00, 0.00, -0.00, -1.00, 625.4, 671.4)">o</text><text xml:space="preserve" font-family="Helvetica-Light,Helvetica" font-size="58.4" fill="#000000" transform="matrix(1.00, 0.00, -0.00, -1.00, 657.8, 671.4)">n</text><text xml:space="preserve" font-family="Helvetica-Light,Helvetica" font-size="58.4" fill="#000000" transform="matrix(1.00, 0.00, -0.00, -1.00, 690.3, 671.4)">t</text><text xml:space="preserve" font-family="Helvetica-Light,Helvetica" font-size="58.4" fill="#000000" transform="matrix(1.00, 0.00, -0.00, -1.00, 706.5, 671.4)">e</text><text xml:space="preserve" font-family="Helvetica-Light,Helvetica" font-size="58.4" fill="#000000" transform="matrix(1.00, 0.00, -0.00, -1.00, 739.0, 671.4)">n</text><text xml:space="preserve" font-family="Helvetica-Light,Helvetica" font-size="58.4" fill="#000000" transform="matrix(1.00, 0.00, -0.00, -1.00, 771.5, 671.4)">t</text><image xlink:href="../../F4F2C7C0-FF11-4D22-989D-341F6599F972/assets/34FF4E6B8DD5E19A0A2F31E70F604CC5.png" width="789.00" height="617.00" transform="matrix(1.00, 0.00, -0.00, -1.00, 117.3, 642.3)" opacity="0.70"></image><image xlink:href="../../F4F2C7C0-FF11-4D22-989D-341F6599F972/assets/101E4E1E7FCA6089E6034D5028963387.png" width="1201.00" height="925.00" transform="matrix(0.62, 0.00, -0.00, -0.62, 137.3, 632.3)"></image></g></svg>