<?xml version="1.0" encoding="UTF-8" standalone="no"?><svg xmlns="http://www.w3.org/2000/svg" xmlns:xlink="http://www.w3.org/1999/xlink" clip-rule="evenodd" stroke-miterlimit="10" viewBox="0 0 1024 768"><desc>SVG generated by Keynote</desc><defs></defs><g transform="matrix(1.00, 0.00, -0.00, -1.00, 0.0, 768.0)"><path d="M 0.0 768.0 L 1024.0 768.0 L 1024.0 0.0 L 0.0 0.0 Z M 0.0 768.0 " fill="#FEFFFF"></path><text xml:space="preserve" font-family="Helvetica-Light,Helvetica" font-size="62.4" fill="#000000" transform="matrix(1.00, 0.00, -0.00, -1.00, 300.5, 709.4)">L</text><text xml:space="preserve" font-family="Helvetica-Light,Helvetica" font-size="62.4" fill="#000000" transform="matrix(1.00, 0.00, -0.00, -1.00, 335.2, 709.4)">a</text><text xml:space="preserve" font-family="Helvetica-Light,Helvetica" font-size="62.4" fill="#000000" transform="matrix(1.00, 0.00, -0.00, -1.00, 369.9, 709.4)">n</text><text xml:space="preserve" font-family="Helvetica-Light,Helvetica" font-size="62.4" fill="#000000" transform="matrix(1.00, 0.00, -0.00, -1.00, 404.5, 709.4)">d</text><text xml:space="preserve" font-family="Helvetica-Light,Helvetica" font-size="62.4" fill="#000000" transform="matrix(1.00, 0.00, -0.00, -1.00, 442.7, 709.4)">i</text><text xml:space="preserve" font-family="Helvetica-Light,Helvetica" font-size="62.4" fill="#000000" transform="matrix(1.00, 0.00, -0.00, -1.00, 456.5, 709.4)">n</text><text xml:space="preserve" font-family="Helvetica-Light,Helvetica" font-size="62.4" fill="#000000" transform="matrix(1.00, 0.00, -0.00, -1.00, 491.2, 709.4)">g</text><text xml:space="preserve" font-family="Helvetica-Light,Helvetica" font-size="62.4" fill="#000000" transform="matrix(1.00, 0.00, -0.00, -1.00, 529.3, 709.4)"> </text><text xml:space="preserve" font-family="Helvetica-Light,Helvetica" font-size="62.4" fill="#000000" transform="matrix(1.00, 0.00, -0.00, -1.00, 546.7, 709.4)">P</text><text xml:space="preserve" font-family="Helvetica-Light,Helvetica" font-size="62.4" fill="#000000" transform="matrix(1.00, 0.00, -0.00, -1.00, 584.8, 709.4)">a</text><text xml:space="preserve" font-family="Helvetica-Light,Helvetica" font-size="62.4" fill="#000000" transform="matrix(1.00, 0.00, -0.00, -1.00, 619.5, 709.4)">g</text><text xml:space="preserve" font-family="Helvetica-Light,Helvetica" font-size="62.4" fill="#000000" transform="matrix(1.00, 0.00, -0.00, -1.00, 657.6, 709.4)">e</text><text xml:space="preserve" font-family="Helvetica-Light,Helvetica" font-size="62.4" fill="#000000" transform="matrix(1.00, 0.00, -0.00, -1.00, 692.3, 709.4)">s</text><image xlink:href="49197E45B4BE8FDB93E4F8DF9C7886EB.png" width="978.00" height="698.00" transform="matrix(1.00, 0.00, -0.00, -1.00, 23.1, 693.0)" opacity="0.70"></image><image xlink:href="CE079A8221E50962A62EC05F72E6DAEB.jpeg" width="2416.00" height="1694.00" transform="matrix(0.39, 0.00, -0.00, -0.39, 43.1, 683.0)"></image></g></svg>